<?xml version="1.0" standalone="no"?>
<!DOCTYPE svg PUBLIC "-//W3C//DTD SVG 20010904//EN"
 "http://www.w3.org/TR/2001/REC-SVG-20010904/DTD/svg10.dtd">
<svg version="1.0" xmlns="http://www.w3.org/2000/svg"
 width="800.000000pt" height="800.000000pt" viewBox="0 0 800.000000 800.000000"
 preserveAspectRatio="xMidYMid meet">
<metadata>
Created by potrace 1.14, written by Peter Selinger 2001-2017
</metadata>
<g transform="translate(0.000000,800.000000) scale(0.100000,-0.100000)"
fill="#000000" stroke="none">
<path d="M7286 7969 c-2 -8 -7 -405 -10 -884 -3 -532 -10 -905 -17 -960 -6
-49 -10 -107 -10 -129 0 -41 -7 -44 -14 -6 -8 43 -15 33 -15 -21 -1 -47 -2
-52 -14 -36 -11 15 -15 15 -25 3 -8 -10 -9 -16 -1 -21 18 -11 11 -24 -15 -31
-28 -7 -29 -30 -1 -28 9 1 16 -2 16 -7 0 -5 -12 -9 -27 -9 -14 0 -24 -3 -20
-6 3 -4 -1 -21 -10 -38 -15 -28 -16 -143 -17 -1206 l-1 -1175 28 -48 c15 -26
32 -47 37 -47 6 0 10 -6 10 -12 0 -7 15 -27 33 -45 18 -18 46 -58 61 -90 16
-32 33 -65 37 -73 30 -53 50 -113 80 -240 33 -138 38 -295 13 -396 -15 -59
-15 -69 0 -122 9 -32 16 -77 16 -100 0 -23 4 -50 9 -60 12 -21 35 -126 56
-252 24 -141 36 -193 50 -210 13 -16 55 -104 55 -116 0 -4 7 -15 15 -24 24
-26 125 -232 125 -255 0 -11 6 -32 14 -47 25 -47 48 -141 49 -193 0 -36 -7
-65 -27 -104 -44 -85 -45 -147 -7 -272 18 -57 37 -114 43 -126 11 -22 11 -22
42 11 32 34 72 82 125 150 l31 39 0 808 0 809 -50 0 c-72 0 -122 34 -135 91
-7 31 33 159 49 159 10 0 69 -61 116 -120 19 -25 19 -14 20 2708 l0 2732 -257
0 c-142 0 -302 3 -355 7 -79 5 -98 3 -102 -8z m184 -4873 c0 -14 -5 -28 -10
-31 -8 -5 -7 -11 1 -21 10 -12 9 -13 -5 -8 -22 8 -23 84 -1 84 9 0 15 -9 15
-24z m7 -284 c18 -18 17 -50 -2 -69 -19 -18 -19 -18 -33 24 -8 24 -7 39 1 57
7 14 14 20 16 13 2 -6 10 -18 18 -25z"/>
<path d="M4310 7871 c0 -5 12 -19 27 -30 25 -21 26 -22 7 -36 -29 -21 -73 -29
-90 -14 -11 9 -20 9 -37 1 -12 -6 -49 -13 -81 -15 -46 -3 -63 -9 -77 -25 -9
-12 -25 -22 -36 -22 -23 0 -49 17 -40 26 4 4 2 13 -4 20 -8 10 -21 8 -62 -6
-28 -10 -54 -17 -58 -15 -3 2 -5 -9 -4 -26 2 -35 -14 -50 -22 -20 -4 17 -13
21 -42 21 -37 0 -78 -31 -66 -50 4 -6 -5 -10 -19 -10 -19 0 -26 5 -26 20 0 15
7 20 28 20 23 1 25 2 9 11 -10 6 -32 8 -50 5 -18 -3 -41 -7 -52 -8 -25 -4 -45
-22 -45 -41 0 -18 24 -39 40 -35 20 5 23 -21 3 -28 -10 -4 -34 -14 -53 -23
l-36 -16 30 -16 c35 -18 45 -39 20 -39 -25 0 -103 62 -104 82 0 10 10 22 21
29 30 16 7 28 -44 23 -46 -4 -57 -11 -38 -23 20 -13 -16 -29 -51 -24 -14 2
-29 -1 -33 -7 -3 -5 -16 -10 -29 -10 -41 0 -59 -23 -62 -80 -1 -30 -8 -57 -16
-61 -20 -13 -48 -11 -48 4 -1 29 -16 40 -41 27 -13 -7 -28 -19 -32 -26 -11
-19 -32 -18 -52 2 -8 9 -22 13 -30 10 -21 -8 -19 -44 3 -49 9 -3 1 -3 -19 -2
-22 2 -48 -5 -71 -19 -68 -41 -166 -131 -184 -168 -9 -21 -22 -38 -28 -38 -15
-1 -115 -94 -169 -158 -25 -30 -50 -73 -57 -98 -7 -24 -17 -47 -21 -50 -17
-10 -10 -82 9 -96 16 -11 18 -28 18 -133 0 -136 27 -339 51 -391 15 -30 15
-40 3 -87 -7 -28 -14 -93 -14 -144 -1 -57 -6 -97 -13 -104 -9 -9 -7 -19 10
-43 23 -33 29 -68 46 -291 4 -66 6 -135 3 -153 -4 -28 -8 -32 -26 -26 -11 4
-36 20 -54 35 -18 16 -35 29 -37 29 -2 0 -13 -10 -25 -22 -22 -24 -26 -68 -10
-133 6 -22 21 -96 35 -164 25 -124 35 -157 35 -108 0 79 56 242 88 255 18 7
56 -35 72 -80 11 -31 11 -40 -6 -76 -10 -23 -26 -44 -36 -47 -9 -3 -28 -22
-43 -41 -25 -33 -27 -42 -23 -103 6 -86 41 -151 81 -151 14 0 17 4 12 18 -4 9
-8 36 -9 59 0 23 -4 44 -8 48 -8 8 12 56 27 67 14 10 21 -16 29 -107 4 -44 11
-91 16 -105 4 -14 11 -34 14 -44 14 -42 24 4 30 129 3 72 10 180 15 240 5 61
15 180 21 265 6 85 16 177 22 203 10 48 50 129 74 155 7 6 15 20 18 30 3 9 25
26 48 37 23 11 57 35 75 54 25 26 42 35 70 35 40 2 58 21 67 71 3 16 10 31 15
33 6 2 7 10 4 18 -8 21 15 43 54 50 23 4 38 15 45 30 14 29 20 30 43 4 25 -28
35 -25 35 9 0 16 7 34 15 41 11 9 12 16 4 26 -6 7 -8 21 -4 31 7 20 69 63 91
63 8 0 25 10 38 23 12 12 31 23 41 25 9 2 29 17 42 33 14 16 31 29 39 29 8 0
14 5 14 10 0 6 11 10 25 10 14 0 25 5 25 10 0 6 6 10 13 10 21 0 81 31 90 47
4 7 15 13 23 13 8 0 22 9 31 20 18 20 39 28 28 10 -8 -13 18 -40 38 -40 8 0
21 -9 28 -20 11 -16 21 -19 51 -14 38 7 58 31 36 46 -9 5 -9 8 -1 8 6 0 23
-13 36 -30 24 -28 25 -31 11 -60 -9 -16 -14 -39 -12 -51 l3 -21 29 23 29 23
-7 -30 c-7 -28 -7 -28 11 -12 49 46 61 55 74 56 8 0 32 5 54 10 68 16 125 21
125 10 0 -6 14 -8 30 -6 17 3 33 1 36 -4 3 -4 16 -8 28 -8 13 0 37 -7 52 -15
16 -8 43 -15 61 -15 17 0 35 -5 38 -10 3 -6 17 -7 30 -4 14 3 38 -1 56 -10 35
-18 69 -21 69 -7 0 14 98 34 138 28 20 -4 54 -2 75 2 30 7 40 6 50 -8 6 -10
29 -26 50 -36 61 -29 90 -119 42 -131 -14 -3 -25 -9 -25 -13 0 -16 53 -61 73
-61 32 0 44 -11 49 -47 4 -27 1 -33 -14 -33 -25 0 -23 -18 5 -41 27 -22 38
-24 31 -4 -4 8 -2 15 4 15 16 0 26 -80 12 -93 -10 -9 -14 -9 -17 1 -3 6 -12
12 -21 12 -15 -1 -15 -2 2 -15 12 -9 17 -21 13 -37 -8 -31 16 -60 48 -60 14 0
25 -4 25 -9 0 -5 9 -9 20 -9 11 0 20 -7 20 -15 0 -9 7 -18 15 -21 27 -11 16
-33 -17 -36 -25 -2 -34 -8 -36 -25 -3 -21 -32 -42 -32 -22 0 6 -5 7 -10 4 -15
-9 -1 -27 16 -21 19 7 18 -21 -1 -31 -24 -14 -9 -73 19 -73 12 0 27 5 34 12
17 17 15 -4 -3 -28 -19 -25 -19 -44 0 -44 10 0 15 -10 15 -31 0 -26 -2 -30
-15 -19 -8 6 -19 9 -25 5 -6 -4 -21 2 -33 13 -12 11 -42 22 -67 26 -38 6 -47
4 -60 -14 -18 -24 -45 -26 -140 -10 -36 6 -111 10 -167 10 -56 0 -104 4 -108
9 -6 11 -87 -10 -109 -28 -7 -6 -16 -8 -19 -4 -4 3 -7 1 -7 -5 0 -7 -6 -12
-14 -12 -7 0 -48 -35 -90 -77 -68 -69 -76 -81 -76 -115 0 -21 -4 -38 -10 -38
-5 0 -10 -12 -10 -26 0 -14 -7 -54 -16 -88 -13 -48 -15 -92 -11 -206 3 -79 9
-146 14 -147 5 -2 7 -20 5 -40 -3 -25 -1 -34 7 -29 7 5 11 -1 11 -16 0 -13 6
-33 14 -44 8 -11 17 -46 20 -77 3 -32 8 -63 12 -69 4 -6 0 -16 -9 -23 -12 -8
-15 -21 -11 -46 6 -37 49 -98 61 -86 9 10 7 183 -3 199 -14 22 -15 81 -3 89 9
5 12 38 11 109 -1 87 1 106 17 126 12 15 22 20 26 14 3 -6 11 -7 17 -4 6 4 8
2 4 -4 -3 -6 4 -14 16 -17 13 -4 32 -17 43 -29 43 -47 77 -65 133 -71 31 -4
64 -9 72 -12 23 -9 203 -2 223 9 10 5 51 11 90 13 71 4 72 5 97 42 25 38 32
42 82 51 17 3 30 14 38 33 7 16 16 29 21 29 16 0 10 69 -7 78 -15 8 -15 10 0
15 9 4 16 17 16 29 0 13 11 46 25 73 25 51 33 129 15 140 -5 3 -10 36 -10 73
0 60 -3 71 -29 99 -20 22 -25 35 -18 42 16 16 30 13 24 -3 -4 -10 -1 -13 9 -9
16 6 16 10 4 38 -5 11 -9 14 -9 8 -1 -19 -21 -16 -21 2 0 9 12 27 26 40 15 14
22 25 15 25 -6 0 -11 5 -11 10 0 6 9 10 20 10 11 0 20 -6 20 -12 0 -9 4 -8 10
2 8 13 10 13 10 -2 0 -9 3 -18 8 -20 7 -3 30 -47 57 -113 9 -22 21 -49 27 -59
21 -39 13 -156 -27 -391 -13 -77 -27 -171 -31 -210 -4 -38 -24 -123 -45 -187
-22 -64 -39 -123 -39 -130 0 -7 -16 -46 -35 -85 -19 -40 -35 -78 -35 -85 0 -7
-10 -33 -21 -58 l-20 -45 22 -17 c11 -10 38 -18 58 -18 l36 0 -27 23 c-24 19
-27 27 -22 59 4 24 15 43 30 53 22 14 23 18 11 42 -12 22 -12 33 0 72 8 25 16
53 17 61 2 8 13 20 25 26 30 15 51 41 79 94 14 27 19 46 12 48 -17 6 -11 22 8
22 14 0 15 2 2 10 -17 11 -7 24 26 34 16 5 23 0 33 -21 10 -22 14 -24 22 -12
5 7 9 21 9 31 0 9 14 47 31 85 28 61 67 178 88 258 6 24 1 42 -27 94 l-35 63
12 76 c6 41 15 80 21 87 17 20 70 192 70 226 0 51 39 170 86 260 7 14 25 59
40 100 15 41 32 77 39 81 10 6 10 19 3 55 -9 40 -8 48 8 60 10 7 30 13 45 13
29 0 63 26 54 40 -3 5 4 14 15 20 23 12 27 30 6 30 -21 0 -66 47 -66 70 0 11
-4 20 -9 20 -10 0 -28 121 -36 245 -4 63 -10 93 -20 101 -8 6 -15 20 -15 30 0
12 -14 27 -37 39 -48 25 -55 34 -49 68 3 15 2 27 -3 27 -23 0 -21 54 4 138 6
18 3 22 -14 22 -23 0 -27 10 -9 28 8 8 5 14 -13 21 -13 5 -33 23 -44 39 l-19
30 -24 -19 c-32 -24 -42 -17 -42 31 0 25 -14 65 -41 117 -43 84 -80 129 -113
139 -12 4 -32 14 -46 24 -14 9 -51 27 -82 39 -53 22 -67 23 -178 16 -84 -5
-120 -4 -120 4 0 6 -6 8 -14 5 -9 -4 -13 3 -13 20 0 16 5 26 14 26 12 0 14 8
8 37 -9 49 -38 86 -54 70 -8 -8 -18 -7 -40 6 -38 22 -41 22 -41 -8 0 -29 0
-29 -34 -12 -14 8 -22 17 -18 22 4 4 -4 4 -17 0 -19 -6 -23 -4 -18 7 4 11 -1
14 -19 10 -14 -2 -24 -11 -24 -21 0 -10 -3 -21 -7 -25 -4 -3 -8 -16 -10 -28
-2 -12 -6 -24 -8 -27 -10 -9 -64 52 -67 76 -3 22 -21 37 -77 62 -21 10 -9 26
17 23 12 -2 22 0 22 5 0 13 -33 38 -55 41 -11 2 -27 10 -35 17 -8 8 -53 28
-100 45 -47 17 -108 44 -136 61 -51 29 -94 38 -94 20z m106 -172 c10 -17 -13
-36 -27 -22 -12 12 -4 33 11 33 5 0 12 -5 16 -11z m-76 -29 c-20 -13 -47 -13
-55 0 -4 6 9 10 32 10 28 0 34 -3 23 -10z m-15 -40 c0 -11 -12 -15 -42 -15
-48 -1 -51 2 -25 21 22 18 67 14 67 -6z m405 -41 c0 -15 -4 -19 -16 -15 -9 3
-18 6 -20 6 -2 0 -4 7 -4 15 0 8 9 15 20 15 14 0 20 -7 20 -21z m-1230 -67 c0
-38 -6 -42 -41 -29 -33 13 -37 31 -11 46 33 20 52 13 52 -17z m160 2 c0 -8 -4
-12 -10 -9 -5 3 -10 10 -10 16 0 5 5 9 10 9 6 0 10 -7 10 -16z m-170 -89 c0
-11 -63 -32 -81 -28 -24 7 -24 20 -1 26 25 7 82 8 82 2z m155 -22 c4 -16 8
-35 9 -44 2 -9 -5 -24 -14 -32 -16 -13 -19 -13 -24 -1 -3 8 -16 14 -28 14 -24
1 -68 31 -68 47 0 9 80 40 107 42 7 1 15 -11 18 -26z m1795 -34 c42 -29 61
-50 65 -71 9 -40 2 -44 -38 -19 -20 12 -37 17 -43 12 -17 -17 -64 1 -79 30 -9
16 -24 33 -35 39 -11 6 -20 20 -20 30 0 17 7 20 46 20 37 0 56 -7 104 -41z
m-1996 -42 c-5 -15 -3 -19 8 -14 19 7 42 -8 34 -21 -4 -7 -15 -8 -29 -3 -12 4
-41 6 -64 5 -54 -5 -64 12 -20 31 19 8 37 22 41 31 10 25 38 -3 30 -29z m396
-29 c0 -18 -5 -28 -14 -28 -22 0 -29 18 -21 58 6 35 8 36 21 17 8 -10 14 -31
14 -47z m-517 35 c22 -12 2 -20 -28 -10 -41 12 -48 30 -7 21 15 -4 30 -9 35
-11z m-113 -8 c7 -8 23 -15 36 -15 20 0 24 -5 24 -30 0 -17 7 -46 14 -65 12
-29 20 -35 45 -35 32 0 61 -22 61 -47 0 -9 10 -31 22 -51 l22 -35 -41 6 c-35
6 -41 4 -46 -13 -4 -17 -9 -18 -36 -9 -17 6 -31 14 -31 18 0 4 -20 5 -44 4
-37 -2 -45 1 -49 19 -6 20 -7 19 -37 -11 -33 -32 -67 -40 -88 -19 -9 9 -15 8
-27 -8 -15 -19 -15 -19 -35 5 -22 26 -27 81 -7 81 6 0 32 -9 56 -20 24 -11 51
-20 60 -20 22 0 69 52 53 58 -7 2 -10 8 -6 13 3 5 -5 9 -18 10 -14 0 -17 3 -8
6 8 2 29 11 47 19 17 8 36 14 42 14 6 0 11 7 11 15 0 19 0 19 -59 -1 -47 -15
-51 -15 -90 6 -23 11 -45 19 -49 16 -4 -2 -15 7 -25 20 -17 23 -17 24 10 30
16 4 37 15 48 25 11 10 40 19 65 22 25 2 50 4 56 5 6 1 17 -5 24 -13z m765
-18 c0 -15 -4 -28 -9 -29 -14 -5 -30 28 -23 46 10 26 32 14 32 -17z m-391 -2
c9 -13 16 -36 16 -51 0 -26 -1 -26 -18 -11 -10 10 -24 17 -30 17 -17 0 -25 39
-12 55 17 21 25 19 44 -10z m-665 -14 c15 -10 7 -31 -13 -31 -7 0 -21 -9 -30
-19 -9 -10 -28 -21 -42 -24 -20 -3 -24 0 -24 19 0 41 72 78 109 55z m61 -27
c0 -9 -5 -14 -12 -12 -18 6 -21 28 -4 28 9 0 16 -7 16 -16z m2603 -4 c3 -11 1
-18 -4 -14 -5 3 -9 12 -9 20 0 20 7 17 13 -6z m-848 -9 c-18 -17 -80 -17 -70
-1 3 6 23 10 43 10 22 0 32 -4 27 -9z m875 -51 c15 -28 1 -49 -17 -25 -15 22
-17 45 -3 45 5 0 14 -9 20 -20z m-1583 -6 c4 -12 -46 -26 -60 -17 -4 3 -3 11
4 19 14 17 50 15 56 -2z m163 -37 c0 -33 -10 -40 -32 -20 -26 23 -23 43 7 43
20 0 25 -5 25 -23z m-272 -35 c2 -7 -3 -12 -12 -12 -9 0 -16 7 -16 16 0 17 22
14 28 -4z m-390 -21 c9 -5 25 -12 35 -15 13 -4 17 -14 15 -33 -3 -24 -7 -28
-34 -27 -44 2 -84 31 -84 60 0 19 5 24 25 24 14 0 33 -4 43 -9z m288 -96 c9
-14 14 -28 11 -31 -8 -8 -47 28 -47 43 0 21 18 15 36 -12z m-779 -397 c-3 -8
-6 -5 -6 6 -1 11 2 17 5 13 3 -3 4 -12 1 -19z m933 -133 c0 -8 -9 -15 -19 -15
-10 0 -21 7 -25 15 -4 11 1 15 19 15 16 0 25 -6 25 -15z m30 -25 c0 -5 -2 -10
-4 -10 -3 0 -8 5 -11 10 -3 6 -1 10 4 10 6 0 11 -4 11 -10z m-1240 -76 c0 -8
-5 -12 -10 -9 -6 4 -8 11 -5 16 9 14 15 11 15 -7z m2632 -706 c10 -4 10 -10 1
-29 -9 -18 -12 -20 -12 -6 -1 9 -7 17 -15 17 -19 0 -28 14 -20 34 5 13 8 13
20 2 7 -8 19 -16 26 -18z m51 -88 c-5 -20 -15 -25 -26 -14 -9 9 4 34 18 34 8
0 11 -8 8 -20z m-693 -572 c30 -58 57 -82 107 -96 33 -10 48 -10 65 -1 37 19
67 51 89 92 16 31 23 36 38 27 19 -10 31 -31 31 -56 0 -8 -16 -31 -36 -51 -34
-34 -42 -37 -118 -43 -44 -4 -92 -3 -106 2 -14 5 -32 11 -40 14 -26 11 -84 11
-124 2 -26 -6 -42 -6 -49 1 -6 6 -21 11 -33 11 -29 0 -54 10 -54 21 0 5 28 9
63 10 34 0 71 4 82 9 18 7 19 8 3 15 -24 10 -23 34 4 62 32 34 53 29 78 -19z
m864 -215 c-5 -5 -12 -12 -16 -18 -4 -6 -8 -2 -8 8 0 9 7 17 17 17 9 0 12 -3
7 -7z"/>
<path d="M3082 7314 c-32 -22 -27 -34 12 -34 39 0 53 14 36 35 -16 19 -20 19
-48 -1z"/>
<path d="M3190 7142 c0 -16 8 -23 36 -28 40 -7 63 6 41 24 -8 7 -28 15 -45 18
-28 6 -32 4 -32 -14z"/>
<path d="M3541 7074 c0 -11 3 -14 6 -6 3 7 2 16 -1 19 -3 4 -6 -2 -5 -13z"/>
<path d="M4065 7840 l-19 -21 55 3 c39 3 54 8 54 18 0 25 -67 25 -90 0z"/>
<path d="M5070 6230 c0 -5 6 -10 14 -10 8 0 18 5 21 10 3 6 -3 10 -14 10 -12
0 -21 -4 -21 -10z"/>
<path d="M505 6220 c-8 -13 13 -60 27 -60 13 0 4 63 -9 67 -6 2 -14 -1 -18 -7z"/>
<path d="M611 6086 c-11 -13 -9 -20 18 -43 17 -15 31 -35 31 -43 0 -9 5 -21
12 -28 8 -8 8 -15 -2 -27 -11 -14 -8 -23 19 -61 17 -25 35 -60 38 -77 4 -18
15 -45 25 -62 43 -71 11 -105 -100 -105 -53 0 -74 -4 -78 -14 -11 -28 -59 -26
-125 6 -89 43 -100 59 -98 133 1 33 7 76 12 95 6 19 10 39 8 44 -1 5 10 22 25
38 20 20 25 31 17 39 -15 15 -48 7 -49 -11 -2 -32 -5 -36 -21 -37 -10 0 -44
-7 -75 -14 l-58 -13 -35 34 c-19 19 -35 41 -35 49 0 12 -3 12 -12 3 -9 -9 -6
-23 12 -62 19 -41 30 -52 59 -60 20 -5 41 -10 48 -10 6 0 25 -18 43 -40 45
-56 30 -78 -80 -115 -25 -8 -53 -15 -63 -15 -27 0 -81 -30 -71 -40 5 -4 37
-10 71 -12 101 -7 132 -59 52 -87 -44 -15 -75 -14 -115 5 -20 10 -44 14 -59
10 l-25 -6 0 -140 0 -140 27 -6 c72 -15 78 -20 102 -71 14 -29 34 -56 48 -62
13 -6 70 -11 126 -11 135 0 147 12 108 103 -15 34 -17 47 -8 56 7 7 17 35 22
64 9 46 13 52 37 55 23 3 30 -2 41 -30 8 -18 26 -39 41 -47 19 -10 30 -28 38
-58 6 -24 14 -46 19 -49 5 -3 48 -10 97 -15 81 -10 93 -9 128 9 21 11 54 23
71 27 18 3 35 10 38 15 7 12 -61 44 -79 37 -19 -8 -56 20 -56 43 0 15 24 32
50 35 11 1 76 50 93 69 13 16 16 31 11 60 -3 21 -8 55 -9 75 -2 20 -6 61 -10
91 -4 40 -2 69 9 100 9 25 16 52 16 61 0 9 7 19 15 23 8 3 15 15 15 26 0 11 7
20 15 20 8 0 15 5 15 10 0 16 -33 7 -48 -13 -39 -52 -115 -57 -152 -10 -29 37
-25 56 20 92 22 17 40 36 40 40 0 13 -81 48 -140 61 -107 22 -116 22 -129 6z
m116 -673 c2 -6 -3 -10 -14 -8 -10 2 -21 4 -25 4 -5 1 -8 5 -8 10 0 13 43 8
47 -6z"/>
<path d="M2370 6079 c0 -11 27 -12 34 -1 2 4 -4 9 -15 9 -10 1 -19 -2 -19 -8z"/>
<path d="M1070 6060 c0 -5 5 -10 10 -10 6 0 10 5 10 10 0 6 -4 10 -10 10 -5 0
-10 -4 -10 -10z"/>
<path d="M1773 6023 c-49 -24 -56 -42 -32 -80 11 -18 18 -33 14 -33 -3 0 2
-13 12 -30 20 -35 15 -34 81 -15 32 10 52 21 52 30 0 8 4 15 8 15 17 0 10 40
-9 50 -10 6 -19 16 -19 23 0 7 -18 22 -40 33 -35 20 -42 20 -67 7z"/>
<path d="M1966 6031 c-9 -14 -10 -74 -2 -93 5 -11 2 -17 -9 -20 -14 -2 -12 -8
11 -34 60 -66 104 -67 104 -3 0 21 5 39 10 39 14 0 12 36 -2 52 -7 7 -19 25
-27 41 -11 21 -22 27 -47 27 -18 0 -35 -4 -38 -9z"/>
<path d="M5070 6009 c0 -5 5 -7 10 -4 6 3 10 8 10 11 0 2 -4 4 -10 4 -5 0 -10
-5 -10 -11z"/>
<path d="M7196 6004 c-3 -9 -2 -23 4 -32 7 -14 9 -10 10 16 0 35 -5 41 -14 16z"/>
<path d="M1007 5973 c-11 -10 -8 -43 3 -43 6 0 10 11 10 25 0 26 -2 29 -13 18z"/>
<path d="M5160 5930 c0 -5 5 -10 10 -10 6 0 10 5 10 10 0 6 -4 10 -10 10 -5 0
-10 -4 -10 -10z"/>
<path d="M1200 5911 c-20 -38 -6 -102 19 -87 7 5 11 -2 11 -16 0 -13 9 -29 19
-35 24 -15 31 -1 31 59 0 31 -4 41 -20 45 -13 3 -20 14 -20 29 0 29 -25 32
-40 5z"/>
<path d="M5220 5790 c0 -6 7 -10 15 -10 8 0 15 2 15 4 0 2 -7 6 -15 10 -8 3
-15 1 -15 -4z"/>
<path d="M5265 5750 c3 -5 8 -10 11 -10 2 0 4 5 4 10 0 6 -5 10 -11 10 -5 0
-7 -4 -4 -10z"/>
<path d="M3460 5609 c0 -7 -11 -9 -27 -6 -15 3 -38 0 -52 -6 -15 -5 -62 -12
-106 -14 -180 -9 -222 -23 -210 -70 3 -13 -1 -33 -8 -46 -15 -23 -16 -103 -2
-144 4 -14 3 -23 -3 -23 -6 0 -10 -28 -10 -67 0 -38 -1 -72 -2 -78 -7 -31 20
-50 63 -45 24 2 57 -28 57 -50 0 -10 7 -20 15 -24 8 -3 15 -11 15 -19 0 -14
40 -57 53 -57 4 0 33 -17 65 -38 58 -39 104 -55 202 -74 44 -8 72 -7 135 6 44
10 92 19 107 23 14 3 37 15 50 27 12 11 26 20 30 18 5 -1 8 7 8 18 0 17 -7 20
-39 20 -21 0 -54 6 -72 14 -19 8 -68 17 -109 20 -163 15 -265 51 -275 99 -4
15 -11 27 -16 27 -5 0 -9 13 -9 29 0 19 8 34 24 45 40 26 46 23 65 -32 22 -64
53 -99 101 -113 58 -18 118 19 153 94 24 53 53 48 85 -16 24 -45 24 -48 7 -67
-22 -24 -12 -40 25 -40 16 0 31 -4 35 -10 3 -5 11 -7 18 -5 7 2 25 6 41 10 27
6 28 8 22 45 -7 45 -6 46 34 25 25 -13 29 -21 35 -79 7 -60 9 -66 37 -75 33
-12 34 -10 46 59 5 28 3 71 -5 114 -7 37 -10 73 -6 79 4 6 8 50 9 98 2 78 0
88 -17 92 -11 3 -19 14 -19 26 0 12 -4 21 -10 21 -5 0 -10 11 -10 25 0 14 -5
25 -11 25 -7 0 -17 6 -23 14 -6 8 -40 21 -75 30 -36 8 -67 20 -71 25 -3 6 -47
15 -98 21 -122 14 -194 29 -213 46 -19 17 -39 18 -39 3z m-63 -218 c17 10 27
9 61 -7 23 -10 42 -22 42 -26 0 -5 -27 -8 -60 -8 -33 0 -60 4 -60 10 0 6 -4 9
-9 8 -9 -3 -11 2 -11 25 0 9 2 9 9 -1 7 -11 12 -11 28 -1z m130 -147 c-3 -3
-12 -4 -19 -1 -8 3 -5 6 6 6 11 1 17 -2 13 -5z"/>
<path d="M4140 5030 c0 -5 4 -10 9 -10 6 0 13 5 16 10 3 6 -1 10 -9 10 -9 0
-16 -4 -16 -10z"/>
<path d="M2048 4833 c6 -2 18 -2 25 0 6 3 1 5 -13 5 -14 0 -19 -2 -12 -5z"/>
<path d="M2000 4793 c0 -14 2 -15 9 -4 6 9 11 10 15 2 10 -16 43 -13 50 4 4
12 -3 15 -34 15 -32 0 -40 -4 -40 -17z"/>
<path d="M3866 4761 c-19 -20 -21 -57 -4 -67 14 -9 38 23 38 52 0 31 -14 37
-34 15z"/>
<path d="M1951 4607 c-23 -21 -41 -45 -41 -53 0 -8 -4 -14 -10 -14 -5 0 -10
-7 -10 -15 0 -8 7 -15 15 -15 8 0 15 -6 15 -14 0 -14 41 -46 59 -46 5 0 12 11
15 24 5 22 10 24 46 19 42 -6 46 -1 41 50 -2 10 5 17 16 17 16 1 16 2 3 13 -9
7 -26 26 -39 42 -31 41 -61 39 -110 -8z"/>
<path d="M1034 4586 c-12 -6 -28 -17 -35 -23 -27 -21 -127 -73 -143 -73 -9 0
-16 -8 -16 -17 0 -15 2 -16 10 -3 8 12 10 12 10 1 0 -29 61 -69 148 -95 157
-48 187 -58 227 -78 22 -10 60 -22 85 -25 25 -3 61 -14 80 -25 44 -23 45 -23
70 4 29 31 27 68 -4 68 -13 0 -26 4 -28 9 -5 15 -106 17 -120 3 -7 -7 -23 -12
-36 -12 -20 0 -22 3 -13 14 6 7 8 21 5 30 -5 14 -9 14 -22 4 -12 -10 -16 -10
-19 0 -3 6 -10 12 -17 12 -14 0 -96 106 -96 125 0 6 -11 22 -24 34 -15 14 -22
30 -19 42 6 22 -10 24 -43 5z"/>
<path d="M5556 4480 c-22 -10 -42 -17 -46 -15 -9 6 -17 -49 -12 -82 4 -25 32
-32 32 -8 0 8 13 29 29 47 24 29 49 78 39 78 -2 0 -21 -9 -42 -20z"/>
<path d="M2000 4455 c0 -24 -2 -25 -35 -19 -28 5 -36 3 -41 -11 -4 -10 -2 -26
4 -36 7 -10 12 -30 12 -44 0 -17 7 -29 23 -35 19 -8 18 -9 -13 -9 -32 -1 -33
-2 -15 -14 23 -16 80 -29 89 -20 3 3 1 12 -5 20 -6 7 -8 13 -3 13 5 0 2 5 -6
10 -12 8 -11 10 5 8 50 -4 53 0 57 57 1 30 0 55 -4 55 -4 0 -8 9 -10 20 -5 32
-22 24 -29 -12 l-6 -33 -2 38 c-1 41 -21 52 -21 12z m-10 -121 c0 -8 -7 -14
-15 -14 -17 0 -18 2 -9 24 7 18 24 12 24 -10z"/>
<path d="M129 4314 c-9 -8 -41 -18 -72 -21 l-57 -6 0 -778 c0 -699 2 -779 16
-779 8 0 36 -12 61 -26 26 -14 58 -26 72 -26 33 -1 108 20 115 31 3 5 35 14
71 21 66 13 65 12 130 92 21 25 20 47 -3 120 -33 104 -18 158 105 390 33 61
118 149 213 219 41 31 84 66 94 78 11 11 24 21 31 21 6 0 29 18 50 40 21 22
45 40 51 40 7 0 19 6 26 13 19 19 108 67 124 67 8 0 35 13 60 29 l46 28 -71
39 c-39 21 -71 42 -71 46 0 4 -8 8 -18 8 -9 0 -51 18 -92 40 -41 22 -82 40
-91 40 -8 0 -42 14 -75 31 -32 17 -84 39 -113 50 -30 11 -64 25 -75 33 -12 7
-39 19 -61 25 -22 7 -76 30 -120 51 -44 20 -100 43 -125 51 -25 7 -63 21 -85
31 -50 22 -115 23 -136 2z"/>
<path d="M5157 4274 c-4 -4 -7 -19 -7 -34 0 -19 7 -30 26 -38 32 -15 23 -32
-17 -32 -31 0 -99 -54 -99 -79 0 -7 -4 -10 -10 -6 -5 3 -16 -7 -24 -22 -32
-63 -127 -123 -195 -123 -11 0 -21 -4 -21 -8 0 -15 -47 -31 -58 -20 -16 16
-26 -10 -10 -30 12 -15 11 -15 -12 1 -41 28 -66 36 -102 31 -41 -5 -85 12 -93
37 -4 10 -20 27 -36 36 -25 15 -29 22 -24 43 4 14 9 42 12 63 4 30 2 36 -9 32
-9 -4 -29 7 -48 25 -37 35 -33 36 -127 -49 -13 -11 -33 -22 -45 -25 -13 -2
-35 -9 -49 -14 -33 -13 -89 -17 -114 -9 -12 4 -34 29 -50 57 -37 64 -79 82
-181 78 -41 -1 -74 -4 -74 -7 2 -30 126 -141 157 -141 7 0 13 -7 13 -15 0 -8
-6 -15 -14 -15 -8 0 -16 -7 -20 -15 -7 -18 -33 -20 -38 -2 -3 7 -22 12 -46 13
-23 0 -38 -2 -33 -5 5 -4 3 -19 -4 -36 l-13 -30 -2 30 c-1 17 -2 33 -1 38 0 4
-4 7 -9 7 -6 0 -10 -7 -10 -16 0 -11 -8 -15 -27 -13 -16 2 -38 -3 -51 -9 -25
-14 -92 -6 -104 12 -5 8 -13 7 -28 -2 -17 -10 -28 -10 -56 0 -27 10 -39 10
-54 0 -26 -16 -40 -15 -40 3 0 8 -5 15 -11 15 -6 0 -9 -7 -5 -15 3 -8 1 -15
-4 -15 -6 0 -11 10 -12 23 -1 12 -2 29 -3 38 -2 35 -23 46 -76 41 -33 -3 -50
-1 -46 5 4 6 -3 8 -18 5 -15 -2 -25 0 -25 7 0 6 5 11 10 11 6 0 10 5 10 10 0
6 -7 10 -16 10 -19 0 -53 39 -54 61 0 27 -38 30 -55 6 -13 -18 -17 -19 -24 -8
-5 8 -16 11 -25 8 -17 -7 -22 -27 -7 -27 5 0 4 -14 -2 -30 -10 -25 -9 -33 3
-40 12 -8 13 -13 3 -28 -6 -11 -14 -40 -18 -65 -6 -38 -4 -48 14 -66 18 -18
19 -22 6 -27 -8 -4 -15 -15 -15 -25 0 -10 -3 -19 -7 -19 -5 0 -14 -4 -21 -9
-11 -7 -11 -20 -1 -72 6 -35 15 -68 19 -74 3 -5 7 -25 8 -44 2 -18 7 -41 12
-51 6 -10 10 -28 10 -39 0 -33 21 -59 42 -53 16 4 18 -3 20 -79 3 -124 4 -131
20 -169 15 -32 14 -36 -1 -50 -12 -12 -15 -26 -10 -63 3 -27 1 -50 -3 -53 -4
-3 -8 -18 -8 -35 0 -16 -4 -29 -10 -29 -5 0 -10 -7 -10 -15 0 -8 -5 -15 -11
-15 -6 0 -8 -8 -4 -19 3 -11 0 -23 -7 -27 -6 -4 -14 -2 -16 4 -5 17 -22 15
-22 -3 0 -24 -20 -17 -30 11 -13 33 -12 178 1 229 5 22 14 113 19 203 l10 163
-36 50 c-19 28 -39 61 -44 74 -12 33 -37 23 -46 -18 -3 -18 -10 -36 -14 -42
-8 -11 -29 -117 -34 -174 -1 -18 -10 -38 -19 -43 -11 -6 -17 -22 -17 -48 0
-21 -4 -42 -10 -45 -6 -4 -10 -63 -10 -143 l0 -137 -35 -24 c-37 -25 -43 -39
-22 -60 8 -8 12 -44 12 -107 -1 -51 3 -94 7 -94 4 0 8 -5 8 -11 0 -21 26 -37
44 -27 25 14 46 2 46 -27 0 -14 19 -50 45 -84 25 -32 45 -62 45 -67 0 -4 10
-21 23 -38 12 -17 29 -47 38 -66 9 -19 34 -73 57 -120 22 -47 56 -119 76 -160
20 -42 36 -82 36 -89 0 -27 86 -198 122 -242 21 -26 38 -51 38 -57 0 -5 9 -20
20 -34 10 -14 34 -54 53 -89 18 -35 41 -77 50 -94 17 -30 72 -163 109 -265 12
-30 35 -75 51 -100 43 -62 97 -166 97 -186 0 -9 12 -30 26 -48 15 -17 44 -69
66 -116 21 -47 43 -93 48 -102 6 -10 10 -26 10 -36 0 -9 6 -26 14 -37 17 -25
45 -128 48 -180 4 -50 19 -51 52 -2 39 57 58 109 46 121 -14 14 -13 36 3 36 6
0 18 4 25 8 15 10 52 108 52 138 0 12 7 27 16 35 8 7 29 40 45 73 33 67 137
204 282 370 20 24 37 46 37 50 0 4 16 26 35 49 89 106 116 145 154 222 23 45
41 89 41 98 0 9 7 31 15 49 8 18 26 65 40 103 14 39 35 95 46 125 11 30 24 62
29 71 5 9 12 34 16 55 7 39 62 175 75 184 3 3 10 20 14 37 3 18 10 35 15 38
14 9 60 112 60 134 0 11 4 22 9 25 5 3 12 18 15 33 21 84 27 100 41 100 16 0
20 -54 15 -228 -2 -92 15 -203 31 -194 5 4 9 19 9 36 0 19 5 29 15 29 23 0 18
27 -6 33 -27 7 -20 30 11 37 22 5 49 50 30 50 -6 0 -10 -6 -10 -12 0 -9 -3 -8
-10 2 -5 8 -7 24 -5 35 2 11 7 34 9 50 3 17 14 55 25 85 28 77 31 304 4 319
-20 11 -22 28 -28 206 -2 61 -10 134 -18 163 -13 45 -13 54 -1 66 19 19 18 40
-2 32 -27 -10 -54 12 -54 45 0 22 5 32 20 36 25 7 25 26 -1 83 -16 37 -20 62
-18 150 2 58 8 121 15 140 7 19 13 31 14 25 1 -5 10 22 20 60 10 39 25 91 34
117 9 26 14 58 10 72 -4 17 -1 27 13 34 10 6 15 14 11 18 -4 4 -1 12 6 18 8 6
16 22 18 36 2 21 -3 27 -29 34 -24 7 -33 16 -35 35 -3 25 -27 39 -41 25z m79
-111 c-10 -10 -19 5 -10 18 6 11 8 11 12 0 2 -7 1 -15 -2 -18z m-458 -308 c-3
-3 -9 2 -12 12 -6 14 -5 15 5 6 7 -7 10 -15 7 -18z m-936 -57 c-6 -6 -15 -8
-19 -4 -4 4 -1 11 7 16 19 12 27 3 12 -12z m179 -2 c50 -26 81 -28 116 -9 34
18 35 17 49 -1 28 -39 18 -52 -47 -66 -57 -12 -64 -12 -105 8 -25 12 -51 22
-58 22 -7 0 -19 6 -25 14 -9 11 -8 18 4 30 20 19 32 20 66 2z m-536 -117 c17
-11 38 -22 48 -25 9 -4 17 -10 17 -15 0 -5 7 -9 15 -9 8 0 25 -11 39 -25 14
-14 30 -25 36 -25 5 0 10 -7 11 -15 4 -53 8 -97 14 -142 6 -45 5 -54 -10 -59
-11 -5 -22 -1 -30 9 -7 10 -17 17 -22 17 -6 0 -13 9 -16 20 -3 11 -14 20 -24
20 -27 0 -65 30 -59 46 3 7 0 17 -7 21 -7 5 -20 25 -30 46 -9 21 -21 36 -26
32 -5 -3 -13 4 -16 16 -12 35 -8 91 7 100 17 11 18 11 53 -12z m480 -100 c39
-6 118 -14 177 -17 116 -8 149 -21 114 -48 -11 -8 -26 -14 -33 -14 -7 0 -13
-7 -13 -15 0 -10 -10 -15 -27 -15 -22 0 -25 2 -13 10 21 14 -3 13 -35 -2 -18
-8 -22 -14 -13 -19 8 -5 4 -11 -14 -19 -20 -10 -39 -10 -85 0 -32 6 -73 13
-91 15 -41 4 -84 42 -80 70 2 11 -6 28 -17 37 -17 15 -18 19 -5 27 8 5 26 8
40 5 14 -3 57 -9 95 -15z m-320 -319 c22 -10 52 -22 68 -26 22 -5 26 -3 21 10
-5 13 1 16 34 16 32 0 42 -4 47 -20 6 -19 47 -37 73 -31 8 1 20 -3 27 -9 9 -8
25 -8 52 -2 86 22 156 4 202 -52 7 -9 23 -17 35 -17 17 -1 17 -2 4 -6 -10 -2
-18 -11 -18 -19 0 -10 -14 -14 -54 -14 -44 0 -55 -3 -59 -19 -4 -18 -57 -36
-67 -23 -6 8 -26 13 -63 16 -19 2 -32 -4 -38 -16 -14 -25 -69 -25 -76 1 -5 20
-16 20 -60 -1 -19 -9 -25 -7 -41 12 l-19 24 -23 -22 c-27 -25 -29 -26 -65 -12
-30 11 -64 48 -65 68 0 9 -7 11 -20 7 -11 -4 -20 -2 -20 4 0 6 -7 11 -15 11
-34 0 -46 68 -15 88 11 7 20 19 20 27 0 12 5 13 18 7 19 -10 42 -5 42 8 0 5
-10 11 -22 13 -13 2 -5 3 17 0 22 -2 58 -12 80 -23z m-785 -454 c0 -11 -19
-15 -25 -6 -3 5 1 10 9 10 9 0 16 -2 16 -4z m1235 -2016 c-3 -5 -11 -10 -16
-10 -6 0 -7 5 -4 10 3 6 11 10 16 10 6 0 7 -4 4 -10z"/>
<path d="M4231 4180 c-16 -9 -6 -30 15 -30 15 0 20 25 6 34 -4 2 -14 1 -21 -4z"/>
<path d="M2000 4146 c0 -22 17 -28 24 -10 9 22 8 24 -9 24 -8 0 -15 -6 -15
-14z"/>
<path d="M2880 3792 c0 -10 -4 -22 -9 -27 -4 -6 -12 -23 -15 -39 -6 -25 -5
-28 7 -18 8 7 17 8 21 4 4 -4 5 5 1 19 -4 17 -1 30 9 38 20 17 21 41 1 41 -8
0 -15 -8 -15 -18z"/>
<path d="M2900 3750 c0 -5 5 -10 10 -10 6 0 10 5 10 10 0 6 -4 10 -10 10 -5 0
-10 -4 -10 -10z"/>
<path d="M5170 3374 c0 -8 5 -12 10 -9 6 3 10 10 10 16 0 5 -4 9 -10 9 -5 0
-10 -7 -10 -16z"/>
<path d="M5427 3264 c-4 -4 -7 -22 -7 -41 0 -23 5 -33 15 -33 10 0 15 10 15
30 0 17 0 33 1 37 1 10 -16 15 -24 7z"/>
<path d="M2070 2462 c0 -13 28 -42 41 -42 5 0 9 -6 9 -13 0 -16 42 -57 58 -57
7 0 12 -4 12 -10 0 -10 52 -40 70 -40 7 0 10 20 8 56 l-3 57 -80 24 c-44 13
-88 27 -97 30 -10 3 -18 1 -18 -5z"/>
<path d="M5982 2322 c-15 -15 -50 -52 -79 -82 -95 -100 -117 -117 -168 -130
-45 -11 -59 -10 -128 9 -94 25 -135 27 -144 5 -6 -16 5 -81 29 -177 l13 -47
39 6 38 5 -7 -67 c-6 -62 -6 -66 12 -59 56 23 57 23 49 -41 -4 -32 -10 -61
-14 -64 -19 -14 -32 -56 -38 -122 -4 -40 -15 -95 -25 -123 -17 -47 -35 -155
-25 -155 8 0 44 85 77 180 22 64 34 121 37 175 5 85 27 146 62 167 11 7 20 21
20 31 0 10 11 28 24 40 30 28 56 79 56 110 0 25 27 57 48 57 7 0 20 18 29 40
10 22 21 40 25 40 5 0 8 7 8 15 0 8 6 15 14 15 9 0 19 20 26 50 7 28 18 53 25
58 13 7 55 72 55 85 0 17 -33 5 -58 -21z"/>
<path d="M1245 1848 c25 -87 49 -131 92 -176 24 -25 15 10 -19 68 -17 30 -39
72 -50 93 -21 41 -33 49 -23 15z"/>
<path d="M2510 1807 c0 -2 33 -37 74 -79 41 -41 84 -93 95 -114 12 -21 44 -75
71 -119 27 -44 55 -94 63 -111 8 -17 26 -40 41 -51 14 -12 26 -26 26 -33 0
-13 62 -72 68 -65 7 6 -9 65 -17 65 -11 0 -29 43 -24 57 7 21 61 -13 144 -91
93 -87 164 -146 177 -146 5 0 17 -9 27 -20 10 -11 23 -20 29 -20 6 0 49 -34
96 -75 46 -41 90 -75 97 -75 7 0 29 -11 49 -25 20 -14 45 -25 55 -25 11 0 19
-7 19 -15 0 -27 63 -85 92 -85 17 0 31 -7 37 -19 6 -10 24 -24 41 -29 29 -11
29 -10 15 12 -16 24 -69 66 -84 66 -5 0 -20 13 -34 30 -14 16 -41 37 -59 46
-19 9 -38 25 -44 37 -5 12 -19 27 -32 33 -12 6 -34 27 -50 47 -15 20 -35 39
-44 42 -10 4 -18 12 -18 19 0 14 -41 56 -54 56 -5 0 -18 10 -30 23 -27 27 -70
63 -116 98 -19 15 -52 42 -73 62 -20 19 -49 43 -65 53 -15 9 -36 25 -47 35
-68 61 -131 109 -142 109 -7 0 -13 3 -13 8 0 13 -146 133 -188 153 -25 13 -42
29 -46 45 -4 13 -11 24 -17 24 -13 0 -48 41 -49 56 0 7 -7 15 -16 18 -16 6
-54 8 -54 3z"/>
<path d="M1411 1744 c0 -11 3 -14 6 -6 3 7 2 16 -1 19 -3 4 -6 -2 -5 -13z"/>
<path d="M6032 1452 c-22 -103 -38 -242 -28 -242 3 0 17 22 30 49 23 44 25 58
21 146 -2 54 -6 99 -8 101 -2 2 -8 -22 -15 -54z"/>
<path d="M1338 1483 c6 -2 12 -11 12 -19 0 -16 48 -50 57 -40 8 8 -53 66 -69
65 -10 0 -10 -2 0 -6z"/>
<path d="M6321 1462 c-12 -18 -19 -32 -14 -32 13 0 45 40 40 53 -2 6 -13 -4
-26 -21z"/>
<path d="M1420 1402 c0 -15 56 -72 71 -72 12 0 11 19 -4 54 -9 21 -20 30 -40
30 -17 1 -27 -4 -27 -12z"/>
<path d="M6268 1401 c-7 -12 -18 -21 -24 -21 -7 0 -14 -7 -18 -15 -4 -12 -2
-13 12 -6 22 12 55 51 48 58 -2 3 -11 -4 -18 -16z"/>
<path d="M6160 1152 c-20 -21 -46 -53 -60 -72 -13 -19 -27 -37 -31 -40 -3 -3
-18 -24 -33 -47 -19 -32 -33 -43 -51 -43 -23 0 -25 -4 -25 -42 l1 -43 44 48
c45 49 142 127 158 127 5 0 31 18 58 41 41 34 49 46 49 75 0 33 -1 34 -37 33
-30 -1 -46 -9 -73 -37z"/>
<path d="M5985 1129 c-12 -37 12 -45 29 -10 16 30 16 31 -3 31 -11 0 -23 -9
-26 -21z"/>
<path d="M6525 1079 c-16 -5 -55 -17 -85 -26 -51 -15 -163 -61 -202 -83 -10
-6 -26 -10 -37 -10 -10 0 -31 -12 -45 -27 -26 -26 -27 -28 -9 -36 13 -6 38 -2
74 11 134 48 176 64 206 78 53 24 193 54 288 60 90 7 91 8 14 33 -42 13 -162
13 -204 0z"/>
<path d="M1415 1070 c-3 -5 12 -18 34 -30 46 -23 56 -48 49 -115 -5 -42 -4
-44 33 -61 22 -9 42 -15 45 -11 3 3 1 41 -6 84 -20 136 -28 156 -54 134 -11
-9 -20 -10 -35 -2 -25 14 -58 14 -66 1z"/>
<path d="M5025 1004 c-16 -14 -41 -35 -55 -47 -14 -11 -43 -36 -65 -56 -22
-20 -60 -52 -84 -71 -25 -19 -60 -50 -79 -67 -19 -18 -38 -33 -42 -33 -4 0
-18 -10 -31 -22 -14 -13 -56 -47 -94 -77 -39 -30 -75 -59 -80 -65 -6 -6 -35
-31 -65 -55 -30 -24 -64 -52 -75 -62 -11 -10 -65 -57 -120 -105 -113 -98 -185
-168 -185 -181 0 -5 -18 -17 -39 -26 -37 -17 -131 -101 -131 -118 0 -4 -8 -10
-17 -12 -10 -3 16 -5 58 -6 66 -1 78 2 96 22 12 12 23 31 26 42 4 16 5 17 6 3
2 -29 23 -21 91 32 36 28 76 58 90 67 14 9 52 42 85 72 78 71 138 121 146 121
4 0 24 16 46 35 21 19 54 48 73 64 19 16 54 47 77 68 35 33 82 63 98 63 2 0
-3 -12 -11 -27 -26 -51 -14 -58 23 -15 20 24 42 52 48 62 25 43 131 195 138
198 4 2 7 10 7 17 0 8 14 38 31 67 87 146 92 161 34 112z"/>
<path d="M1529 720 c-19 -22 -46 -54 -61 -72 -16 -17 -28 -35 -28 -40 0 -12
38 -26 92 -33 26 -3 50 -10 53 -16 10 -15 23 -10 30 10 5 17 -8 132 -21 174
-8 27 -29 20 -65 -23z"/>
<path d="M1360 654 c-33 -12 -33 -13 -8 -13 32 -1 58 8 58 20 0 11 -5 10 -50
-7z"/>
<path d="M1595 498 c-17 -45 -20 -107 -8 -151 13 -43 12 -55 -1 -95 -15 -42
-77 -114 -132 -150 -34 -22 20 -7 108 31 34 15 37 15 54 -4 18 -20 18 -22 0
-71 -9 -27 -15 -52 -13 -54 3 -3 27 -4 55 -2 l50 3 -14 40 c-8 22 -21 98 -30
170 -25 213 -39 288 -52 293 -6 2 -14 -2 -17 -10z"/>
<path d="M7963 427 l-23 -13 30 -11 c28 -11 30 -10 30 13 0 27 -5 29 -37 11z"/>
<path d="M5953 330 c1 -85 -13 -220 -25 -242 -5 -11 -5 -18 1 -18 5 0 6 -15 1
-36 -12 -51 18 -42 35 11 70 216 72 241 28 288 -17 17 -33 39 -35 47 -3 8 -5
-14 -5 -50z"/>
<path d="M5221 178 c-1 -9 -6 -18 -12 -20 -7 -2 -10 -11 -7 -18 3 -11 8 -9 17
8 7 13 10 28 7 35 -2 7 -5 5 -5 -5z"/>
</g>
</svg>
